<svg width="32" height="32" viewBox="0 0 32 32" fill="none" xmlns="http://www.w3.org/2000/svg">
<path d="M3.33334 25.3333V9.33333H28.6667V25.3333C28.6667 26.8 27.4667 28 26 28H6.00001C4.53334 28 3.33334 26.8 3.33334 25.3333Z" fill="#CFD8DC"/>
<path d="M28.6667 6.66667V10.6667H3.33334V6.66667C3.33334 5.2 4.53334 4 6.00001 4H26C27.4667 4 28.6667 5.2 28.6667 6.66667Z" fill="#FF6F61"/>
<path d="M22 8.66667C23.1046 8.66667 24 7.77124 24 6.66667C24 5.5621 23.1046 4.66667 22 4.66667C20.8954 4.66667 20 5.5621 20 6.66667C20 7.77124 20.8954 8.66667 22 8.66667Z" fill="#FF6F61"/>
<path d="M10 8.66667C11.1046 8.66667 12 7.77124 12 6.66667C12 5.5621 11.1046 4.66667 10 4.66667C8.89543 4.66667 8 5.5621 8 6.66667C8 7.77124 8.89543 8.66667 10 8.66667Z" fill="#FF6F61"/>
<path d="M22 2C21.2667 2 20.6667 2.6 20.6667 3.33333V6.66667C20.6667 7.4 21.2667 8 22 8C22.7333 8 23.3333 7.4 23.3333 6.66667V3.33333C23.3333 2.6 22.7333 2 22 2ZM9.99999 2C9.26666 2 8.66666 2.6 8.66666 3.33333V6.66667C8.66666 7.4 9.26666 8 9.99999 8C10.7333 8 11.3333 7.4 11.3333 6.66667V3.33333C11.3333 2.6 10.7333 2 9.99999 2Z" fill="#B0BEC5"/>
<path d="M8.66666 13.3333H11.3333V16H8.66666V13.3333ZM12.6667 13.3333H15.3333V16H12.6667V13.3333ZM16.6667 13.3333H19.3333V16H16.6667V13.3333ZM20.6667 13.3333H23.3333V16H20.6667V13.3333ZM8.66666 17.3333H11.3333V20H8.66666V17.3333ZM12.6667 17.3333H15.3333V20H12.6667V17.3333ZM16.6667 17.3333H19.3333V20H16.6667V17.3333ZM20.6667 17.3333H23.3333V20H20.6667V17.3333ZM8.66666 21.3333H11.3333V24H8.66666V21.3333ZM12.6667 21.3333H15.3333V24H12.6667V21.3333ZM16.6667 21.3333H19.3333V24H16.6667V21.3333ZM20.6667 21.3333H23.3333V24H20.6667V21.3333Z" fill="#90A4AE"/>
</svg>
