<svg width="11" height="12" viewBox="0 0 11 12" fill="none" xmlns="http://www.w3.org/2000/svg">
<path d="M0.526094 3.62259H10.474C10.534 3.6226 10.5933 3.61002 10.6484 3.58561C10.7034 3.5612 10.7531 3.52549 10.7942 3.48065C10.8354 3.43581 10.8672 3.3828 10.8877 3.32487C10.9083 3.26693 10.9171 3.2053 10.9136 3.14373L10.9081 3.02622C10.8366 1.83711 9.87018 0.905649 8.70762 0.905649H8.14186V0.452824C8.14186 0.332728 8.09547 0.21755 8.0129 0.132629C7.93033 0.0477081 7.81835 0 7.70158 0C7.58481 0 7.47282 0.0477081 7.39025 0.132629C7.30768 0.21755 7.2613 0.332728 7.2613 0.452824V0.905649H3.73905V0.452824C3.73905 0.332728 3.69266 0.21755 3.61009 0.132629C3.52752 0.0477081 3.41553 0 3.29877 0C3.182 0 3.07001 0.0477081 2.98744 0.132629C2.90487 0.21755 2.85848 0.332728 2.85848 0.452824V0.905649H2.29272C1.13016 0.905649 0.163523 1.83733 0.0919769 3.02713L0.0864734 3.14396C0.0829601 3.20553 0.0917305 3.26718 0.112245 3.32513C0.132759 3.38309 0.164584 3.43611 0.205762 3.48094C0.24694 3.52577 0.296601 3.56147 0.351689 3.58583C0.406778 3.61019 0.466129 3.6227 0.526094 3.62259ZM10.9826 4.96975C10.9797 4.85164 10.9321 4.73935 10.8499 4.65686C10.7677 4.57437 10.6574 4.52821 10.5425 4.52824H0.457851C0.34298 4.52826 0.232661 4.57443 0.150414 4.65691C0.0681661 4.73939 0.0204971 4.85164 0.0175693 4.96975C-0.0222042 6.57202 0.00555961 8.17532 0.100783 9.77512C0.169466 10.9117 1.05465 11.8219 2.15932 11.8925C4.38423 12.0359 6.61568 12.0358 8.84058 11.8923C9.94569 11.8217 10.8307 10.9113 10.8996 9.77489C10.9942 8.20857 11.0222 6.59176 10.9826 4.96975ZM7.70158 7.24519C7.52642 7.24519 7.35844 7.17363 7.23459 7.04625C7.11074 6.91886 7.04116 6.7461 7.04116 6.56595C7.04116 6.38581 7.11074 6.21304 7.23459 6.08566C7.35844 5.95828 7.52642 5.88672 7.70158 5.88672C7.87673 5.88672 8.04471 5.95828 8.16857 6.08566C8.29242 6.21304 8.362 6.38581 8.362 6.56595C8.362 6.7461 8.29242 6.91886 8.16857 7.04625C8.04471 7.17363 7.87673 7.24519 7.70158 7.24519ZM8.362 8.83007C8.362 9.01022 8.29242 9.18299 8.16857 9.31037C8.04471 9.43775 7.87673 9.50931 7.70158 9.50931C7.52642 9.50931 7.35844 9.43775 7.23459 9.31037C7.11074 9.18299 7.04116 9.01022 7.04116 8.83007C7.04116 8.64993 7.11074 8.47716 7.23459 8.34978C7.35844 8.2224 7.52642 8.15084 7.70158 8.15084C7.87673 8.15084 8.04471 8.2224 8.16857 8.34978C8.29242 8.47716 8.362 8.64993 8.362 8.83007ZM3.29877 8.15084C3.47392 8.15084 3.6419 8.2224 3.76575 8.34978C3.88961 8.47716 3.95919 8.64993 3.95919 8.83007C3.95919 9.01022 3.88961 9.18299 3.76575 9.31037C3.6419 9.43775 3.47392 9.50931 3.29877 9.50931C3.12361 9.50931 2.95563 9.43775 2.83178 9.31037C2.70792 9.18299 2.63834 9.01022 2.63834 8.83007C2.63834 8.64993 2.70792 8.47716 2.83178 8.34978C2.95563 8.2224 3.12361 8.15084 3.29877 8.15084ZM2.63834 6.56595C2.63834 6.47675 2.65543 6.38843 2.68861 6.30602C2.7218 6.22361 2.77045 6.14873 2.83178 6.08566C2.8931 6.02259 2.96591 5.97255 3.04603 5.93842C3.12616 5.90428 3.21204 5.88672 3.29877 5.88672C3.38549 5.88672 3.47137 5.90428 3.5515 5.93842C3.63162 5.97255 3.70443 6.02259 3.76575 6.08566C3.82708 6.14873 3.87573 6.22361 3.90892 6.30602C3.9421 6.38843 3.95919 6.47675 3.95919 6.56595C3.95919 6.7461 3.88961 6.91886 3.76575 7.04625C3.6419 7.17363 3.47392 7.24519 3.29877 7.24519C3.12361 7.24519 2.95563 7.17363 2.83178 7.04625C2.70792 6.91886 2.63834 6.7461 2.63834 6.56595ZM4.83975 8.83007C4.83975 8.64993 4.90933 8.47716 5.03318 8.34978C5.15704 8.2224 5.32502 8.15084 5.50017 8.15084C5.67533 8.15084 5.84331 8.2224 5.96716 8.34978C6.09101 8.47716 6.16059 8.64993 6.16059 8.83007C6.16059 9.01022 6.09101 9.18299 5.96716 9.31037C5.84331 9.43775 5.67533 9.50931 5.50017 9.50931C5.32502 9.50931 5.15704 9.43775 5.03318 9.31037C4.90933 9.18299 4.83975 9.01022 4.83975 8.83007ZM5.50017 7.24519C5.32502 7.24519 5.15704 7.17363 5.03318 7.04625C4.90933 6.91886 4.83975 6.7461 4.83975 6.56595C4.83975 6.38581 4.90933 6.21304 5.03318 6.08566C5.15704 5.95828 5.32502 5.88672 5.50017 5.88672C5.67533 5.88672 5.84331 5.95828 5.96716 6.08566C6.09101 6.21304 6.16059 6.38581 6.16059 6.56595C6.16059 6.7461 6.09101 6.91886 5.96716 7.04625C5.84331 7.17363 5.67533 7.24519 5.50017 7.24519Z" fill="#FF6F61"/>
</svg>
