<svg width="18" height="18" viewBox="0 0 18 18" fill="none" xmlns="http://www.w3.org/2000/svg">
<path d="M14.0262 0H3.97971C2.92501 0 1.91351 0.418977 1.16773 1.16476C0.421943 1.91055 0.00296533 2.92205 0.00296533 3.97674V14.0233C-0.000988442 14.0369 -0.000988442 14.0514 0.00296533 14.0651C0.0139915 15.1125 0.437831 16.1133 1.18242 16.8501C1.92702 17.5868 2.93222 18.0001 3.97971 18H14.0262C15.0694 17.9979 16.07 17.586 16.8123 16.8531C17.5546 16.1202 17.9792 15.1249 17.9946 14.0819V3.97674C17.9946 2.92349 17.5768 1.91326 16.8328 1.16772C16.0888 0.422173 15.0795 0.00221737 14.0262 0ZM16.7472 12.3488L13.2476 8.34698C13.0253 8.11027 12.7568 7.92162 12.4587 7.79266C12.1607 7.6637 11.8394 7.59717 11.5146 7.59717C11.1898 7.59717 10.8685 7.6637 10.5705 7.79266C10.2724 7.92162 10.0039 8.11027 9.78157 8.34698L7.37878 11.093L6.5918 10.1386C6.37495 9.87846 6.10355 9.66917 5.79684 9.52555C5.49013 9.38192 5.15559 9.30747 4.81692 9.30747C4.47824 9.30747 4.14371 9.38192 3.837 9.52555C3.53028 9.66917 3.25889 9.87846 3.04204 10.1386L1.25878 12.2902V3.97674C1.26099 3.25579 1.54837 2.56499 2.05816 2.0552C2.56796 1.5454 3.25875 1.25802 3.97971 1.25581H14.0262C14.7472 1.25802 15.438 1.5454 15.9478 2.0552C16.4576 2.56499 16.7449 3.25579 16.7472 3.97674V12.3488Z" fill="#A9A9A9"/>
<path d="M4.81694 6.48836C5.74169 6.48836 6.49135 5.7387 6.49135 4.81394C6.49135 3.88919 5.74169 3.13953 4.81694 3.13953C3.89218 3.13953 3.14252 3.88919 3.14252 4.81394C3.14252 5.7387 3.89218 6.48836 4.81694 6.48836Z" fill="#A9A9A9"/>
</svg>
