<svg width="23" height="23" viewBox="0 0 23 23" fill="none" xmlns="http://www.w3.org/2000/svg">
<path d="M20.8826 8.66094H20.3943C20.2356 8.16437 20.0354 7.68205 19.7958 7.21908L20.1416 6.87327C20.9801 6.0357 20.9576 4.69344 20.1419 3.87855L19.1217 2.85838C18.3073 2.04291 16.9648 2.01928 16.127 2.85806L15.7809 3.20414C15.3179 2.96456 14.8356 2.76436 14.339 2.60565V2.1173C14.339 0.949828 13.3892 0 12.2217 0H10.7782C9.61075 0 8.66092 0.949828 8.66092 2.1173V2.60565C8.16435 2.76432 7.68203 2.96452 7.21907 3.20414L6.8733 2.85838C6.03717 2.02126 4.69469 2.04089 3.87864 2.85811L2.85833 3.87833C2.04291 4.69285 2.01932 6.03521 2.85806 6.87305L3.20414 7.21912C2.96452 7.68209 2.76432 8.16442 2.60564 8.66098H2.11734C0.949871 8.66094 0 9.61077 0 10.7782V12.2218C0 13.3892 0.949871 14.3391 2.11734 14.3391H2.60564C2.76432 14.8356 2.96453 15.3179 3.20414 15.7809L2.85833 16.1267C2.01986 16.9643 2.04232 18.3066 2.85806 19.1214L3.87828 20.1416C4.69266 20.9571 6.0352 20.9807 6.87299 20.1419L7.21907 19.7959C7.68205 20.0354 8.16437 20.2356 8.66092 20.3944V20.8827C8.66092 22.0502 9.61079 23 10.7783 23H12.2217C13.3892 23 14.3391 22.0502 14.3391 20.8827V20.3944C14.8356 20.2357 15.318 20.0355 15.7809 19.7959L16.1267 20.1416C16.9628 20.9787 18.3053 20.9591 19.1214 20.1419L20.1417 19.1216C20.9571 18.3071 20.9807 16.9647 20.1419 16.1269L19.7959 15.7808C20.0355 15.3179 20.2357 14.8355 20.3944 14.339H20.8827C22.0501 14.339 23 13.3891 23 12.2217V10.7782C23 9.61077 22.0501 8.66094 20.8826 8.66094ZM11.5 16.5043C8.74057 16.5043 6.49569 14.2594 6.49569 11.5C6.49569 8.74063 8.74057 6.4957 11.5 6.4957C14.2594 6.4957 16.5043 8.74063 16.5043 11.5C16.5043 14.2594 14.2594 16.5043 11.5 16.5043Z" fill="#FF6F61"/>
</svg>
