<svg width="10" height="12" viewBox="0 0 10 12" fill="none" xmlns="http://www.w3.org/2000/svg">
<path d="M8.02715 1.11834C7.46128 0.65501 6.79964 0.323039 6.08994 0.146369C5.38025 -0.0303 4.64019 -0.0472632 3.92314 0.0967032C3.00117 0.285725 2.15297 0.735786 1.47958 1.39328C0.80618 2.05076 0.335974 2.88797 0.12497 3.80515C-0.0860339 4.72234 -0.0289421 5.68085 0.289445 6.56651C0.607832 7.45216 1.17409 8.22763 1.92078 8.80053C2.77329 9.42449 3.49913 10.2051 4.05951 11.1007L4.44132 11.7356C4.48982 11.8163 4.55835 11.883 4.64026 11.9293C4.72217 11.9757 4.81468 12 4.90878 12C5.00288 12 5.09539 11.9757 5.1773 11.9293C5.25921 11.883 5.32774 11.8163 5.37624 11.7356L5.74224 11.1258C6.23021 10.268 6.89556 9.52418 7.69387 8.94399C8.31984 8.51331 8.83716 7.94306 9.20502 7.27824C9.57288 6.61341 9.78121 5.87219 9.81358 5.11307C9.84595 4.35395 9.70148 3.59769 9.39155 2.90396C9.08162 2.21023 8.61472 1.59801 8.02769 1.11561L8.02715 1.11834ZM4.90823 7.09162C4.47671 7.09162 4.05488 6.96366 3.69608 6.72392C3.33728 6.48418 3.05763 6.14342 2.89249 5.74475C2.72736 5.34607 2.68415 4.90738 2.76834 4.48415C2.85252 4.06092 3.06032 3.67215 3.36545 3.36702C3.67059 3.06189 4.05935 2.85409 4.48258 2.7699C4.90581 2.68572 5.34451 2.72892 5.74318 2.89406C6.14186 3.0592 6.48261 3.33885 6.72235 3.69765C6.96209 4.05644 7.09005 4.47828 7.09005 4.9098C7.09005 5.48846 6.86019 6.04341 6.45101 6.45258C6.04184 6.86175 5.48689 7.09162 4.90823 7.09162Z" fill="#FF6F61"/>
</svg>
