<svg width="17" height="30" viewBox="0 0 17 30" fill="none" xmlns="http://www.w3.org/2000/svg">
<path d="M6.5625 18.5707V27.7518L7.85273 29.6865C8.13105 30.1037 8.74453 30.1037 9.02285 29.6865L10.3125 27.7518V18.5707C9.70371 18.6832 9.07852 18.75 8.4375 18.75C7.79648 18.75 7.17129 18.6832 6.5625 18.5707ZM8.4375 0C3.77754 0 0 3.77754 0 8.4375C0 13.0975 3.77754 16.875 8.4375 16.875C13.0975 16.875 16.875 13.0975 16.875 8.4375C16.875 3.77754 13.0975 0 8.4375 0ZM8.4375 4.45312C6.24023 4.45312 4.45312 6.24023 4.45312 8.4375C4.45312 8.82539 4.13789 9.14062 3.75 9.14062C3.36211 9.14062 3.04688 8.82539 3.04688 8.4375C3.04688 5.46504 5.46562 3.04687 8.4375 3.04687C8.82539 3.04687 9.14062 3.36211 9.14062 3.75C9.14062 4.13789 8.82539 4.45312 8.4375 4.45312Z" fill="#FF6F61"/>
</svg>
