<svg width="56" height="56" viewBox="0 0 56 56" fill="none" xmlns="http://www.w3.org/2000/svg">
<path d="M0 14.5503V48.2203C0 49.3208 1.11125 50.0733 2.13306 49.665L15.5556 43.5556V6.22223L1.95611 11.6618C1.37878 11.8927 0.883877 12.2913 0.535218 12.8062C0.186558 13.321 0.00013827 13.9285 0 14.5503ZM18.6667 43.5556L37.3333 49.7778V12.4445L18.6667 6.22223V43.5556ZM53.8669 6.33501L40.4444 12.4445V49.7778L54.0439 44.3382C54.6213 44.1074 55.1163 43.7088 55.465 43.194C55.8136 42.6791 56 42.0716 56 41.4497V7.77973C56 6.67917 54.8888 5.92667 53.8669 6.33501Z" fill="#D3D3D3"/>
</svg>
