<svg width="20" height="16" viewBox="0 0 20 16" fill="none" xmlns="http://www.w3.org/2000/svg">
<path d="M0 3.05929V15.4279C0 15.8321 0.396875 16.1086 0.761806 15.9586L5.55556 13.7143V0L0.698611 1.99821C0.492423 2.08304 0.31567 2.22946 0.191149 2.41858C0.066628 2.60771 4.93822e-05 2.83087 0 3.05929ZM6.66667 13.7143L13.3333 16V2.28571L6.66667 0V13.7143ZM19.2382 0.0414286L14.4444 2.28571V16L19.3014 14.0018C19.5076 13.917 19.6844 13.7706 19.8089 13.5815C19.9334 13.3923 20 13.1691 20 12.9407V0.572143C20 0.167857 19.6031 -0.108571 19.2382 0.0414286Z" fill="#BEBEBE"/>
</svg>
