<svg width="56" height="56" viewBox="0 0 56 56" fill="none" xmlns="http://www.w3.org/2000/svg">
<path d="M5.25 5.25C4.21165 5.25 3.19662 5.55791 2.33326 6.13478C1.4699 6.71166 0.796995 7.5316 0.399635 8.49091C0.00227475 9.45022 -0.101693 10.5058 0.10088 11.5242C0.303452 12.5426 0.803466 13.4781 1.53769 14.2123C2.27192 14.9465 3.20738 15.4466 4.22578 15.6491C5.24418 15.8517 6.29978 15.7477 7.25909 15.3504C8.2184 14.953 9.03834 14.2801 9.61522 13.4167C10.1921 12.5534 10.5 11.5384 10.5 10.5C10.5 9.10761 9.94688 7.77226 8.96231 6.78769C7.97775 5.80312 6.64239 5.25 5.25 5.25ZM5.25 22.75C4.21165 22.75 3.19662 23.0579 2.33326 23.6348C1.4699 24.2117 0.796995 25.0316 0.399635 25.9909C0.00227475 26.9502 -0.101693 28.0058 0.10088 29.0242C0.303452 30.0426 0.803466 30.9781 1.53769 31.7123C2.27192 32.4465 3.20738 32.9466 4.22578 33.1491C5.24418 33.3517 6.29978 33.2477 7.25909 32.8504C8.2184 32.453 9.03834 31.7801 9.61522 30.9167C10.1921 30.0534 10.5 29.0384 10.5 28C10.5 26.6076 9.94688 25.2723 8.96231 24.2877C7.97775 23.3031 6.64239 22.75 5.25 22.75ZM5.25 40.25C4.21165 40.25 3.19662 40.5579 2.33326 41.1348C1.4699 41.7117 0.796995 42.5316 0.399635 43.4909C0.00227475 44.4502 -0.101693 45.5058 0.10088 46.5242C0.303452 47.5426 0.803466 48.4781 1.53769 49.2123C2.27192 49.9465 3.20738 50.4466 4.22578 50.6491C5.24418 50.8517 6.29978 50.7477 7.25909 50.3504C8.2184 49.953 9.03834 49.2801 9.61522 48.4167C10.1921 47.5534 10.5 46.5384 10.5 45.5C10.5 44.1076 9.94688 42.7723 8.96231 41.7877C7.97775 40.8031 6.64239 40.25 5.25 40.25ZM54.25 42H19.25C18.7859 42 18.3408 42.1844 18.0126 42.5126C17.6844 42.8408 17.5 43.2859 17.5 43.75V47.25C17.5 47.7141 17.6844 48.1592 18.0126 48.4874C18.3408 48.8156 18.7859 49 19.25 49H54.25C54.7141 49 55.1593 48.8156 55.4874 48.4874C55.8156 48.1592 56 47.7141 56 47.25V43.75C56 43.2859 55.8156 42.8408 55.4874 42.5126C55.1593 42.1844 54.7141 42 54.25 42ZM54.25 7H19.25C18.7859 7 18.3408 7.18437 18.0126 7.51256C17.6844 7.84075 17.5 8.28587 17.5 8.75V12.25C17.5 12.7141 17.6844 13.1592 18.0126 13.4874C18.3408 13.8156 18.7859 14 19.25 14H54.25C54.7141 14 55.1593 13.8156 55.4874 13.4874C55.8156 13.1592 56 12.7141 56 12.25V8.75C56 8.28587 55.8156 7.84075 55.4874 7.51256C55.1593 7.18437 54.7141 7 54.25 7ZM54.25 24.5H19.25C18.7859 24.5 18.3408 24.6844 18.0126 25.0126C17.6844 25.3408 17.5 25.7859 17.5 26.25V29.75C17.5 30.2141 17.6844 30.6593 18.0126 30.9874C18.3408 31.3156 18.7859 31.5 19.25 31.5H54.25C54.7141 31.5 55.1593 31.3156 55.4874 30.9874C55.8156 30.6593 56 30.2141 56 29.75V26.25C56 25.7859 55.8156 25.3408 55.4874 25.0126C55.1593 24.6844 54.7141 24.5 54.25 24.5Z" fill="#D3D3D3"/>
</svg>
