<svg width="21" height="20" viewBox="0 0 21 20" fill="none" xmlns="http://www.w3.org/2000/svg">
<path d="M17.9144 0C17.7165 0 17.5266 0.0786423 17.3866 0.218626C17.2467 0.35861 17.168 0.548469 17.168 0.746436V2.08554H15.8297C15.6317 2.08554 15.4418 2.16419 15.3018 2.30417C15.1619 2.44415 15.0832 2.63401 15.0832 2.83198C15.0832 3.02995 15.1619 3.21981 15.3018 3.35979C15.4418 3.49977 15.6317 3.57842 15.8297 3.57842H17.168V4.91678C17.168 5.11474 17.2467 5.3046 17.3866 5.44459C17.5266 5.58457 17.7165 5.66321 17.9144 5.66321C18.1124 5.66321 18.3023 5.58457 18.4423 5.44459C18.5822 5.3046 18.6609 5.11474 18.6609 4.91678V3.57842H19.9992C20.1972 3.57842 20.3871 3.49977 20.5271 3.35979C20.667 3.21981 20.7457 3.02995 20.7457 2.83198C20.7457 2.63401 20.667 2.44415 20.5271 2.30417C20.3871 2.16419 20.1972 2.08554 19.9992 2.08554H18.6609V0.746436C18.6609 0.548469 18.5822 0.35861 18.4423 0.218626C18.3023 0.0786423 18.1124 0 17.9144 0Z" fill="#A9A9A9"/>
<path d="M17.9144 7.15383C17.3464 7.15296 16.8 6.9355 16.3867 6.54577C15.9734 6.15605 15.7243 5.62338 15.6901 5.05634C15.123 5.02214 14.5904 4.77301 14.2006 4.3597C13.8109 3.9464 13.5935 3.40003 13.5926 2.83196C13.5926 2.24974 13.8091 1.72723 14.1748 1.33909C13.5553 0.868833 12.7715 0.592651 11.943 0.592651H8.95722C7.15831 0.592651 5.64305 1.87652 5.29969 3.5784H3.73218C1.67201 3.5784 0 5.25041 0 7.31058V16.2678C0 18.328 1.67201 20 3.73218 20H17.168C19.2282 20 20.9002 18.328 20.9002 16.2678V7.31058C20.9002 6.46711 20.6165 5.68335 20.1388 5.05634C20.1046 5.62338 19.8555 6.15605 19.4422 6.54577C19.0289 6.9355 18.4825 7.15296 17.9144 7.15383ZM10.4501 17.0143C7.56885 17.0143 5.22505 14.6704 5.22505 11.7892C5.22505 8.90795 7.56885 6.56414 10.4501 6.56414C13.3313 6.56414 15.6751 8.90795 15.6751 11.7892C15.6751 14.6704 13.3313 17.0143 10.4501 17.0143Z" fill="#A9A9A9"/>
<path d="M10.4501 15.5214C12.5113 15.5214 14.1823 13.8505 14.1823 11.7892C14.1823 9.72802 12.5113 8.05707 10.4501 8.05707C8.38888 8.05707 6.71793 9.72802 6.71793 11.7892C6.71793 13.8505 8.38888 15.5214 10.4501 15.5214Z" fill="#A9A9A9"/>
</svg>
