<svg width="18" height="32" viewBox="0 0 18 32" fill="none" xmlns="http://www.w3.org/2000/svg">
<path d="M7 19.8088V29.6019L8.37625 31.6656C8.67313 32.1106 9.3275 32.1106 9.62438 31.6656L11 29.6019V19.8088C10.3506 19.9288 9.68375 20 9 20C8.31625 20 7.64937 19.9288 7 19.8088ZM9 0C4.02938 0 0 4.02938 0 9C0 13.9706 4.02938 18 9 18C13.9706 18 18 13.9706 18 9C18 4.02938 13.9706 0 9 0ZM9 4.75C6.65625 4.75 4.75 6.65625 4.75 9C4.75 9.41375 4.41375 9.75 4 9.75C3.58625 9.75 3.25 9.41375 3.25 9C3.25 5.82938 5.83 3.25 9 3.25C9.41375 3.25 9.75 3.58625 9.75 4C9.75 4.41375 9.41375 4.75 9 4.75Z" fill="#FF6F61"/>
</svg>
